<mxfile host="app.diagrams.net" modified="2023-03-29T06:55:03.598Z" agent="Mozilla/5.0 (Windows NT 10.0; Win64; x64) AppleWebKit/537.36 (KHTML, like Gecko) Chrome/111.0.0.0 Safari/537.36" etag="XfP0ubd9ooEYq5tvTJDZ" version="21.1.1" type="github">
  <diagram id="C5RBs43oDa-KdzZeNtuy" name="Page-1">
    <mxGraphModel dx="1434" dy="796" grid="0" gridSize="10" guides="1" tooltips="1" connect="1" arrows="1" fold="1" page="0" pageScale="1" pageWidth="827" pageHeight="1169" background="#ffffff" math="0" shadow="0">
      <root>
        <mxCell id="WIyWlLk6GJQsqaUBKTNV-0" />
        <mxCell id="WIyWlLk6GJQsqaUBKTNV-1" parent="WIyWlLk6GJQsqaUBKTNV-0" />
        <mxCell id="Q3FAwrVxetzA3b7x19hh-8" value="" style="edgeStyle=orthogonalEdgeStyle;rounded=0;orthogonalLoop=1;jettySize=auto;html=1;strokeColor=#000000;" parent="WIyWlLk6GJQsqaUBKTNV-1" source="Q3FAwrVxetzA3b7x19hh-5" target="Q3FAwrVxetzA3b7x19hh-6" edge="1">
          <mxGeometry relative="1" as="geometry" />
        </mxCell>
        <mxCell id="Q3FAwrVxetzA3b7x19hh-5" value="網頁程式執行" style="strokeWidth=2;html=1;shape=mxgraph.flowchart.start_1;whiteSpace=wrap;fillColor=#f5f5f5;fontColor=#333333;strokeColor=#666666;fontSize=15;fontStyle=1" parent="WIyWlLk6GJQsqaUBKTNV-1" vertex="1">
          <mxGeometry x="206" y="50" width="100" height="60" as="geometry" />
        </mxCell>
        <mxCell id="VgMrhemJ6wQ01I0-AcNZ-75" style="edgeStyle=orthogonalEdgeStyle;rounded=0;orthogonalLoop=1;jettySize=auto;html=1;exitX=1;exitY=0.5;exitDx=0;exitDy=0;entryX=0.5;entryY=0;entryDx=0;entryDy=0;strokeColor=#000000;" parent="WIyWlLk6GJQsqaUBKTNV-1" source="Q3FAwrVxetzA3b7x19hh-6" target="VgMrhemJ6wQ01I0-AcNZ-49" edge="1">
          <mxGeometry relative="1" as="geometry" />
        </mxCell>
        <mxCell id="VgMrhemJ6wQ01I0-AcNZ-76" style="edgeStyle=orthogonalEdgeStyle;rounded=0;orthogonalLoop=1;jettySize=auto;html=1;exitX=0;exitY=0.5;exitDx=0;exitDy=0;strokeColor=#000000;" parent="WIyWlLk6GJQsqaUBKTNV-1" source="Q3FAwrVxetzA3b7x19hh-6" target="VgMrhemJ6wQ01I0-AcNZ-50" edge="1">
          <mxGeometry relative="1" as="geometry" />
        </mxCell>
        <mxCell id="Q3FAwrVxetzA3b7x19hh-6" value="主選單" style="rounded=1;whiteSpace=wrap;html=1;absoluteArcSize=1;arcSize=14;strokeWidth=2;fillColor=#f5f5f5;fontColor=#333333;strokeColor=#666666;fontSize=15;fontStyle=1" parent="WIyWlLk6GJQsqaUBKTNV-1" vertex="1">
          <mxGeometry x="206" y="150" width="100" height="60" as="geometry" />
        </mxCell>
        <mxCell id="Q3FAwrVxetzA3b7x19hh-7" style="edgeStyle=orthogonalEdgeStyle;rounded=0;orthogonalLoop=1;jettySize=auto;html=1;exitX=0.5;exitY=1;exitDx=0;exitDy=0;strokeColor=#000000;" parent="WIyWlLk6GJQsqaUBKTNV-1" source="Q3FAwrVxetzA3b7x19hh-6" target="Q3FAwrVxetzA3b7x19hh-6" edge="1">
          <mxGeometry relative="1" as="geometry" />
        </mxCell>
        <mxCell id="VgMrhemJ6wQ01I0-AcNZ-58" style="edgeStyle=orthogonalEdgeStyle;rounded=0;orthogonalLoop=1;jettySize=auto;html=1;exitX=0.5;exitY=1;exitDx=0;exitDy=0;strokeColor=#000000;" parent="WIyWlLk6GJQsqaUBKTNV-1" source="VgMrhemJ6wQ01I0-AcNZ-3" target="VgMrhemJ6wQ01I0-AcNZ-1" edge="1">
          <mxGeometry relative="1" as="geometry" />
        </mxCell>
        <mxCell id="VgMrhemJ6wQ01I0-AcNZ-59" value="No" style="edgeLabel;html=1;align=center;verticalAlign=middle;resizable=0;points=[];labelBackgroundColor=none;fontColor=#000000;fontSize=16;fontStyle=1" parent="VgMrhemJ6wQ01I0-AcNZ-58" connectable="0" vertex="1">
          <mxGeometry x="-0.3471" y="1" relative="1" as="geometry">
            <mxPoint x="-14" y="5" as="offset" />
          </mxGeometry>
        </mxCell>
        <mxCell id="VgMrhemJ6wQ01I0-AcNZ-3" value="物料主檔" style="rounded=1;whiteSpace=wrap;html=1;absoluteArcSize=1;arcSize=14;strokeWidth=2;fillColor=#f5f5f5;fontColor=#333333;strokeColor=#666666;fontStyle=1;fontSize=15;" parent="WIyWlLk6GJQsqaUBKTNV-1" vertex="1">
          <mxGeometry x="675" y="546" width="100" height="60" as="geometry" />
        </mxCell>
        <mxCell id="VgMrhemJ6wQ01I0-AcNZ-41" style="edgeStyle=orthogonalEdgeStyle;rounded=0;orthogonalLoop=1;jettySize=auto;html=1;exitX=0.503;exitY=0.871;exitDx=0;exitDy=0;entryX=0.5;entryY=0;entryDx=0;entryDy=0;exitPerimeter=0;strokeColor=#000000;" parent="WIyWlLk6GJQsqaUBKTNV-1" source="VgMrhemJ6wQ01I0-AcNZ-74" edge="1">
          <mxGeometry relative="1" as="geometry">
            <mxPoint x="574" y="606" as="sourcePoint" />
            <mxPoint x="574" y="676" as="targetPoint" />
          </mxGeometry>
        </mxCell>
        <mxCell id="VgMrhemJ6wQ01I0-AcNZ-39" style="edgeStyle=orthogonalEdgeStyle;rounded=0;orthogonalLoop=1;jettySize=auto;html=1;exitX=0.505;exitY=0.842;exitDx=0;exitDy=0;entryX=0.5;entryY=0;entryDx=0;entryDy=0;exitPerimeter=0;strokeColor=#000000;" parent="WIyWlLk6GJQsqaUBKTNV-1" source="VgMrhemJ6wQ01I0-AcNZ-67" edge="1">
          <mxGeometry relative="1" as="geometry">
            <mxPoint x="437" y="606" as="sourcePoint" />
            <mxPoint x="437" y="676" as="targetPoint" />
          </mxGeometry>
        </mxCell>
        <mxCell id="VgMrhemJ6wQ01I0-AcNZ-90" style="edgeStyle=orthogonalEdgeStyle;rounded=0;orthogonalLoop=1;jettySize=auto;html=1;exitX=0;exitY=0.5;exitDx=0;exitDy=0;entryX=1;entryY=0.5;entryDx=0;entryDy=0;strokeColor=#000000;" parent="WIyWlLk6GJQsqaUBKTNV-1" source="VgMrhemJ6wQ01I0-AcNZ-20" target="VgMrhemJ6wQ01I0-AcNZ-50" edge="1">
          <mxGeometry relative="1" as="geometry" />
        </mxCell>
        <mxCell id="VgMrhemJ6wQ01I0-AcNZ-20" value="同步" style="rounded=1;whiteSpace=wrap;html=1;absoluteArcSize=1;arcSize=14;strokeWidth=2;fillColor=#f5f5f5;fontColor=#333333;strokeColor=#666666;fontSize=15;fontStyle=1" parent="WIyWlLk6GJQsqaUBKTNV-1" vertex="1">
          <mxGeometry x="206" y="405" width="100" height="60" as="geometry" />
        </mxCell>
        <mxCell id="VgMrhemJ6wQ01I0-AcNZ-40" style="edgeStyle=orthogonalEdgeStyle;rounded=0;orthogonalLoop=1;jettySize=auto;html=1;exitX=0.513;exitY=0.869;exitDx=0;exitDy=0;entryX=0.5;entryY=0;entryDx=0;entryDy=0;exitPerimeter=0;strokeColor=#000000;" parent="WIyWlLk6GJQsqaUBKTNV-1" source="VgMrhemJ6wQ01I0-AcNZ-70" edge="1">
          <mxGeometry relative="1" as="geometry">
            <mxPoint x="437" y="737" as="sourcePoint" />
            <mxPoint x="437" y="807" as="targetPoint" />
            <Array as="points">
              <mxPoint x="437" y="728" />
            </Array>
          </mxGeometry>
        </mxCell>
        <mxCell id="VgMrhemJ6wQ01I0-AcNZ-42" style="edgeStyle=orthogonalEdgeStyle;rounded=0;orthogonalLoop=1;jettySize=auto;html=1;exitX=0.495;exitY=0.85;exitDx=0;exitDy=0;entryX=0.5;entryY=0;entryDx=0;entryDy=0;exitPerimeter=0;strokeColor=#000000;" parent="WIyWlLk6GJQsqaUBKTNV-1" source="VgMrhemJ6wQ01I0-AcNZ-73" edge="1">
          <mxGeometry relative="1" as="geometry">
            <mxPoint x="574" y="736" as="sourcePoint" />
            <mxPoint x="574" y="806" as="targetPoint" />
            <Array as="points">
              <mxPoint x="574" y="773" />
              <mxPoint x="574" y="773" />
            </Array>
          </mxGeometry>
        </mxCell>
        <mxCell id="VgMrhemJ6wQ01I0-AcNZ-81" style="edgeStyle=orthogonalEdgeStyle;rounded=0;orthogonalLoop=1;jettySize=auto;html=1;exitX=0.5;exitY=1;exitDx=0;exitDy=0;exitPerimeter=0;strokeColor=#000000;" parent="WIyWlLk6GJQsqaUBKTNV-1" source="VgMrhemJ6wQ01I0-AcNZ-43" target="VgMrhemJ6wQ01I0-AcNZ-67" edge="1">
          <mxGeometry relative="1" as="geometry" />
        </mxCell>
        <mxCell id="VgMrhemJ6wQ01I0-AcNZ-82" style="edgeStyle=orthogonalEdgeStyle;rounded=0;orthogonalLoop=1;jettySize=auto;html=1;exitX=1;exitY=0.85;exitDx=0;exitDy=0;exitPerimeter=0;strokeColor=#000000;" parent="WIyWlLk6GJQsqaUBKTNV-1" source="VgMrhemJ6wQ01I0-AcNZ-43" target="VgMrhemJ6wQ01I0-AcNZ-74" edge="1">
          <mxGeometry relative="1" as="geometry" />
        </mxCell>
        <mxCell id="VgMrhemJ6wQ01I0-AcNZ-83" style="edgeStyle=orthogonalEdgeStyle;rounded=0;orthogonalLoop=1;jettySize=auto;html=1;exitX=1;exitY=0.5;exitDx=0;exitDy=0;exitPerimeter=0;strokeColor=#000000;" parent="WIyWlLk6GJQsqaUBKTNV-1" source="VgMrhemJ6wQ01I0-AcNZ-43" target="VgMrhemJ6wQ01I0-AcNZ-3" edge="1">
          <mxGeometry relative="1" as="geometry" />
        </mxCell>
        <mxCell id="VgMrhemJ6wQ01I0-AcNZ-88" style="edgeStyle=orthogonalEdgeStyle;rounded=0;orthogonalLoop=1;jettySize=auto;html=1;exitX=0;exitY=0.5;exitDx=0;exitDy=0;exitPerimeter=0;entryX=1;entryY=0.5;entryDx=0;entryDy=0;strokeColor=#000000;" parent="WIyWlLk6GJQsqaUBKTNV-1" source="VgMrhemJ6wQ01I0-AcNZ-43" target="VgMrhemJ6wQ01I0-AcNZ-20" edge="1">
          <mxGeometry relative="1" as="geometry" />
        </mxCell>
        <mxCell id="VgMrhemJ6wQ01I0-AcNZ-43" value="Hana Cloud" style="strokeWidth=2;html=1;shape=mxgraph.flowchart.database;whiteSpace=wrap;fillColor=#f5f5f5;fontColor=#333333;strokeColor=#666666;fontSize=15;fontStyle=1" parent="WIyWlLk6GJQsqaUBKTNV-1" vertex="1">
          <mxGeometry x="387" y="390" width="100" height="90" as="geometry" />
        </mxCell>
        <mxCell id="VgMrhemJ6wQ01I0-AcNZ-78" style="edgeStyle=orthogonalEdgeStyle;rounded=0;orthogonalLoop=1;jettySize=auto;html=1;exitX=0.5;exitY=1;exitDx=0;exitDy=0;entryX=0.5;entryY=0;entryDx=0;entryDy=0;entryPerimeter=0;strokeColor=#000000;" parent="WIyWlLk6GJQsqaUBKTNV-1" source="VgMrhemJ6wQ01I0-AcNZ-49" target="VgMrhemJ6wQ01I0-AcNZ-43" edge="1">
          <mxGeometry relative="1" as="geometry" />
        </mxCell>
        <mxCell id="VgMrhemJ6wQ01I0-AcNZ-49" value="連接SAP API" style="rounded=1;whiteSpace=wrap;html=1;absoluteArcSize=1;arcSize=14;strokeWidth=2;fillColor=#f5f5f5;fontColor=#333333;strokeColor=#666666;fontSize=15;fontStyle=1" parent="WIyWlLk6GJQsqaUBKTNV-1" vertex="1">
          <mxGeometry x="387" y="275" width="100" height="60" as="geometry" />
        </mxCell>
        <mxCell id="f_vY5W9CxbXfMibYVCZA-3" style="edgeStyle=orthogonalEdgeStyle;rounded=0;orthogonalLoop=1;jettySize=auto;html=1;exitX=0.5;exitY=1;exitDx=0;exitDy=0;strokeColor=#000000;" parent="WIyWlLk6GJQsqaUBKTNV-1" source="VgMrhemJ6wQ01I0-AcNZ-50" target="f_vY5W9CxbXfMibYVCZA-1" edge="1">
          <mxGeometry relative="1" as="geometry" />
        </mxCell>
        <mxCell id="VgMrhemJ6wQ01I0-AcNZ-50" value="連接第三方API" style="rounded=1;whiteSpace=wrap;html=1;absoluteArcSize=1;arcSize=14;strokeWidth=2;fillColor=#f5f5f5;fontColor=#333333;strokeColor=#666666;fontSize=15;fontStyle=1" parent="WIyWlLk6GJQsqaUBKTNV-1" vertex="1">
          <mxGeometry x="40" y="275" width="100" height="60" as="geometry" />
        </mxCell>
        <mxCell id="VgMrhemJ6wQ01I0-AcNZ-84" style="edgeStyle=orthogonalEdgeStyle;rounded=0;orthogonalLoop=1;jettySize=auto;html=1;exitX=1;exitY=0.5;exitDx=0;exitDy=0;exitPerimeter=0;entryX=1;entryY=0.15;entryDx=0;entryDy=0;entryPerimeter=0;strokeColor=#000000;" parent="WIyWlLk6GJQsqaUBKTNV-1" source="VgMrhemJ6wQ01I0-AcNZ-1" target="VgMrhemJ6wQ01I0-AcNZ-43" edge="1">
          <mxGeometry relative="1" as="geometry" />
        </mxCell>
        <mxCell id="VgMrhemJ6wQ01I0-AcNZ-85" value="Yes" style="edgeLabel;html=1;align=center;verticalAlign=middle;resizable=0;points=[];labelBackgroundColor=none;fontColor=#000000;fontSize=16;fontStyle=1" parent="VgMrhemJ6wQ01I0-AcNZ-84" connectable="0" vertex="1">
          <mxGeometry x="0.0914" y="-8" relative="1" as="geometry">
            <mxPoint x="22" y="109" as="offset" />
          </mxGeometry>
        </mxCell>
        <mxCell id="f_vY5W9CxbXfMibYVCZA-13" style="edgeStyle=orthogonalEdgeStyle;rounded=0;orthogonalLoop=1;jettySize=auto;html=1;exitX=0.5;exitY=1;exitDx=0;exitDy=0;exitPerimeter=0;entryX=0.5;entryY=0;entryDx=0;entryDy=0;entryPerimeter=0;strokeColor=#000000;fontSize=15;fontColor=#000000;" parent="WIyWlLk6GJQsqaUBKTNV-1" source="VgMrhemJ6wQ01I0-AcNZ-1" target="f_vY5W9CxbXfMibYVCZA-5" edge="1">
          <mxGeometry relative="1" as="geometry">
            <Array as="points">
              <mxPoint x="725" y="941" />
              <mxPoint x="256" y="941" />
            </Array>
          </mxGeometry>
        </mxCell>
        <mxCell id="VgMrhemJ6wQ01I0-AcNZ-1" value="建立物料主檔" style="strokeWidth=2;html=1;shape=mxgraph.flowchart.decision;whiteSpace=wrap;fillColor=#f5f5f5;fontColor=#333333;strokeColor=#666666;fontStyle=1;fontSize=15;" parent="WIyWlLk6GJQsqaUBKTNV-1" vertex="1">
          <mxGeometry x="675" y="694" width="100" height="100" as="geometry" />
        </mxCell>
        <mxCell id="VgMrhemJ6wQ01I0-AcNZ-67" value="採購單" style="strokeWidth=2;html=1;shape=mxgraph.flowchart.document2;whiteSpace=wrap;size=0.25;fillColor=#f5f5f5;fontColor=#333333;strokeColor=#666666;fontStyle=1;fontSize=15;" parent="WIyWlLk6GJQsqaUBKTNV-1" vertex="1">
          <mxGeometry x="387" y="546" width="100" height="60" as="geometry" />
        </mxCell>
        <mxCell id="VgMrhemJ6wQ01I0-AcNZ-70" value="收貨採購單" style="strokeWidth=2;html=1;shape=mxgraph.flowchart.document2;whiteSpace=wrap;size=0.25;fillColor=#f5f5f5;fontColor=#333333;strokeColor=#666666;fontStyle=1;fontSize=15;" parent="WIyWlLk6GJQsqaUBKTNV-1" vertex="1">
          <mxGeometry x="387" y="676" width="100" height="60" as="geometry" />
        </mxCell>
        <mxCell id="f_vY5W9CxbXfMibYVCZA-14" style="edgeStyle=orthogonalEdgeStyle;rounded=0;orthogonalLoop=1;jettySize=auto;html=1;exitX=0;exitY=0.5;exitDx=0;exitDy=0;exitPerimeter=0;entryX=0.5;entryY=0;entryDx=0;entryDy=0;entryPerimeter=0;strokeColor=#000000;fontSize=15;fontColor=#000000;" parent="WIyWlLk6GJQsqaUBKTNV-1" source="VgMrhemJ6wQ01I0-AcNZ-69" target="f_vY5W9CxbXfMibYVCZA-5" edge="1">
          <mxGeometry relative="1" as="geometry">
            <Array as="points">
              <mxPoint x="433" y="836" />
              <mxPoint x="433" y="942" />
              <mxPoint x="256" y="942" />
            </Array>
          </mxGeometry>
        </mxCell>
        <mxCell id="VgMrhemJ6wQ01I0-AcNZ-69" value="日記帳分錄" style="strokeWidth=2;html=1;shape=mxgraph.flowchart.document2;whiteSpace=wrap;size=0.25;fillColor=#f5f5f5;fontColor=#333333;strokeColor=#666666;fontStyle=1;fontSize=15;" parent="WIyWlLk6GJQsqaUBKTNV-1" vertex="1">
          <mxGeometry x="387" y="806" width="100" height="60" as="geometry" />
        </mxCell>
        <mxCell id="f_vY5W9CxbXfMibYVCZA-15" style="edgeStyle=orthogonalEdgeStyle;rounded=0;orthogonalLoop=1;jettySize=auto;html=1;exitX=0;exitY=0.5;exitDx=0;exitDy=0;exitPerimeter=0;entryX=0.5;entryY=0;entryDx=0;entryDy=0;entryPerimeter=0;strokeColor=#000000;fontSize=15;fontColor=#000000;" parent="WIyWlLk6GJQsqaUBKTNV-1" source="VgMrhemJ6wQ01I0-AcNZ-72" target="f_vY5W9CxbXfMibYVCZA-5" edge="1">
          <mxGeometry relative="1" as="geometry">
            <Array as="points">
              <mxPoint x="568" y="836" />
              <mxPoint x="568" y="941" />
              <mxPoint x="256" y="941" />
            </Array>
          </mxGeometry>
        </mxCell>
        <mxCell id="VgMrhemJ6wQ01I0-AcNZ-72" value="日記帳分錄" style="strokeWidth=2;html=1;shape=mxgraph.flowchart.document2;whiteSpace=wrap;size=0.25;fillColor=#f5f5f5;fontColor=#333333;strokeColor=#666666;fontStyle=1;fontSize=15;" parent="WIyWlLk6GJQsqaUBKTNV-1" vertex="1">
          <mxGeometry x="524" y="806" width="100" height="60" as="geometry" />
        </mxCell>
        <mxCell id="VgMrhemJ6wQ01I0-AcNZ-73" value="交貨單" style="strokeWidth=2;html=1;shape=mxgraph.flowchart.document2;whiteSpace=wrap;size=0.25;fillColor=#f5f5f5;fontColor=#333333;strokeColor=#666666;fontStyle=1;fontSize=15;" parent="WIyWlLk6GJQsqaUBKTNV-1" vertex="1">
          <mxGeometry x="524" y="679" width="100" height="60" as="geometry" />
        </mxCell>
        <mxCell id="VgMrhemJ6wQ01I0-AcNZ-74" value="銷售單" style="strokeWidth=2;html=1;shape=mxgraph.flowchart.document2;whiteSpace=wrap;size=0.25;fillColor=#f5f5f5;fontColor=#333333;strokeColor=#666666;fontStyle=1;fontSize=15;" parent="WIyWlLk6GJQsqaUBKTNV-1" vertex="1">
          <mxGeometry x="524" y="546" width="100" height="60" as="geometry" />
        </mxCell>
        <mxCell id="f_vY5W9CxbXfMibYVCZA-8" style="edgeStyle=orthogonalEdgeStyle;rounded=0;orthogonalLoop=1;jettySize=auto;html=1;exitX=0.5;exitY=1;exitDx=0;exitDy=0;entryX=0.5;entryY=0;entryDx=0;entryDy=0;entryPerimeter=0;strokeColor=#000000;" parent="WIyWlLk6GJQsqaUBKTNV-1" source="VgMrhemJ6wQ01I0-AcNZ-80" target="f_vY5W9CxbXfMibYVCZA-5" edge="1">
          <mxGeometry relative="1" as="geometry">
            <Array as="points">
              <mxPoint x="90" y="940" />
              <mxPoint x="256" y="940" />
            </Array>
          </mxGeometry>
        </mxCell>
        <mxCell id="VgMrhemJ6wQ01I0-AcNZ-80" value="庫存" style="rounded=1;whiteSpace=wrap;html=1;absoluteArcSize=1;arcSize=14;strokeWidth=2;fillColor=#f5f5f5;fontColor=#333333;strokeColor=#666666;fontSize=15;" parent="WIyWlLk6GJQsqaUBKTNV-1" vertex="1">
          <mxGeometry x="40" y="530" width="100" height="60" as="geometry" />
        </mxCell>
        <mxCell id="f_vY5W9CxbXfMibYVCZA-4" style="edgeStyle=orthogonalEdgeStyle;rounded=0;orthogonalLoop=1;jettySize=auto;html=1;exitX=0.5;exitY=1;exitDx=0;exitDy=0;exitPerimeter=0;strokeColor=#000000;" parent="WIyWlLk6GJQsqaUBKTNV-1" source="f_vY5W9CxbXfMibYVCZA-1" target="VgMrhemJ6wQ01I0-AcNZ-80" edge="1">
          <mxGeometry relative="1" as="geometry" />
        </mxCell>
        <mxCell id="f_vY5W9CxbXfMibYVCZA-1" value="第三方" style="strokeWidth=2;html=1;shape=mxgraph.flowchart.database;whiteSpace=wrap;fillColor=#f5f5f5;fontColor=#333333;strokeColor=#666666;fontSize=15;fontStyle=1" parent="WIyWlLk6GJQsqaUBKTNV-1" vertex="1">
          <mxGeometry x="40" y="390" width="100" height="90" as="geometry" />
        </mxCell>
        <mxCell id="f_vY5W9CxbXfMibYVCZA-5" value="結束" style="strokeWidth=2;html=1;shape=mxgraph.flowchart.terminator;whiteSpace=wrap;fillColor=#f5f5f5;fontColor=#333333;strokeColor=#666666;fontStyle=1;fontSize=15;" parent="WIyWlLk6GJQsqaUBKTNV-1" vertex="1">
          <mxGeometry x="206" y="1010" width="100" height="60" as="geometry" />
        </mxCell>
      </root>
    </mxGraphModel>
  </diagram>
</mxfile>
